<?xml version="1.0" encoding="UTF-8" standalone="no"?>
<!DOCTYPE svg PUBLIC "-//W3C//DTD SVG 1.1//EN" "http://www.w3.org/Graphics/SVG/1.1/DTD/svg11.dtd">
<svg version="1.1" id="Layer_1" xmlns="http://www.w3.org/2000/svg"
     xmlns:xlink="http://www.w3.org/1999/xlink"
     x="0px" y="0px" width="646px" height="220px"
     viewBox="0 0 646 220" enable-background="new 0 0 646 220"
     xml:space="preserve">

  <!-- w -->
  <rect x="42" y="85" width="10" height="10" />
  <rect x="42" y="97" width="10" height="10" />
  <rect x="42" y="109" width="10" height="10" />
  <rect x="42" y="121" width="10" height="10" />
  <rect x="54" y="85" width="10" height="10" />
  <rect x="54" y="97" width="10" height="10" />
  <rect x="54" y="109" width="10" height="10" />
  <rect x="54" y="121" width="10" height="10" />
  <rect x="54" y="133" width="10" height="10" />
  <rect x="66" y="133" width="10" height="10" />
  <rect x="78" y="97" width="10" height="10" />
  <rect x="78" y="109" width="10" height="10" />
  <rect x="78" y="121" width="10" height="10" />
  <rect x="90" y="133" width="10" height="10" />
  <rect x="102" y="85" width="10" height="10" />
  <rect x="102" y="97" width="10" height="10" />
  <rect x="102" y="109" width="10" height="10" />
  <rect x="102" y="121" width="10" height="10" />
  <rect x="102" y="133" width="10" height="10" />
  <rect x="114" y="85" width="10" height="10" />
  <rect x="114" y="97" width="10" height="10" />
  <rect x="114" y="109" width="10" height="10" />
  <rect x="114" y="121" width="10" height="10" />

  <!-- h -->
  <rect x="136" y="61" width="10" height="10" />
  <rect x="136" y="73" width="10" height="10" />
  <rect x="136" y="85" width="10" height="10" />
  <rect x="136" y="97" width="10" height="10" />
  <rect x="136" y="109" width="10" height="10" />
  <rect x="136" y="121" width="10" height="10" />
  <rect x="136" y="133" width="10" height="10" />
  <rect x="148" y="61" width="10" height="10" />
  <rect x="148" y="73" width="10" height="10" />
  <rect x="148" y="85" width="10" height="10" />
  <rect x="148" y="97" width="10" height="10" />
  <rect x="148" y="109" width="10" height="10" />
  <rect x="148" y="121" width="10" height="10" />
  <rect x="148" y="133" width="10" height="10" />
  <rect x="160" y="85" width="10" height="10" />
  <rect x="172" y="85" width="10" height="10" />
  <rect x="184" y="85" width="10" height="10" />
  <rect x="184" y="97" width="10" height="10" />
  <rect x="184" y="109" width="10" height="10" />
  <rect x="184" y="121" width="10" height="10" />
  <rect x="184" y="133" width="10" height="10" />
  <rect x="196" y="97" width="10" height="10" />
  <rect x="196" y="109" width="10" height="10" />
  <rect x="196" y="121" width="10" height="10" />
  <rect x="196" y="133" width="10" height="10" />

  <!-- i -->
  <rect x="218" y="85" width="10" height="10" />
  <rect x="218" y="133" width="10" height="10" />
  <rect x="230" y="61" width="10" height="10" />
  <rect x="230" y="85" width="10" height="10" />
  <rect x="230" y="97" width="10" height="10" />
  <rect x="230" y="109" width="10" height="10" />
  <rect x="230" y="121" width="10" height="10" />
  <rect x="230" y="133" width="10" height="10" />
  <rect x="242" y="61" width="10" height="10" />
  <rect x="242" y="85" width="10" height="10" />
  <rect x="242" y="97" width="10" height="10" />
  <rect x="242" y="109" width="10" height="10" />
  <rect x="242" y="121" width="10" height="10" />
  <rect x="242" y="133" width="10" height="10" />
  <rect x="254" y="133" width="10" height="10" />


  <!-- l -->
  <rect x="276" y="61" width="10" height="10" />
  <rect x="276" y="133" width="10" height="10" />
  <rect x="288" y="61" width="10" height="10" />
  <rect x="288" y="73" width="10" height="10" />
  <rect x="288" y="85" width="10" height="10" />
  <rect x="288" y="97" width="10" height="10" />
  <rect x="288" y="109" width="10" height="10" />
  <rect x="288" y="121" width="10" height="10" />
  <rect x="288" y="133" width="10" height="10" />
  <rect x="300" y="61" width="10" height="10" />
  <rect x="300" y="73" width="10" height="10" />
  <rect x="300" y="85" width="10" height="10" />
  <rect x="300" y="97" width="10" height="10" />
  <rect x="300" y="109" width="10" height="10" />
  <rect x="300" y="121" width="10" height="10" />
  <rect x="300" y="133" width="10" height="10" />
  <rect x="312" y="133" width="10" height="10" />

  <!-- e -->
  <rect x="334" y="97" width="10" height="10" />
  <rect x="334" y="109" width="10" height="10" />
  <rect x="334" y="121" width="10" height="10" />
  <rect x="346" y="85" width="10" height="10" />
  <rect x="346" y="97" width="10" height="10" />
  <rect x="346" y="109" width="10" height="10" />
  <rect x="346" y="121" width="10" height="10" />
  <rect x="346" y="133" width="10" height="10" />
  <rect x="358" y="85" width="10" height="10" />
  <rect x="358" y="109" width="10" height="10" />
  <rect x="358" y="133" width="10" height="10" />
  <rect x="370" y="85" width="10" height="10" />
  <rect x="370" y="109" width="10" height="10" />
  <rect x="370" y="133" width="10" height="10" />
  <rect x="382" y="85" width="10" height="10" />
  <rect x="382" y="97" width="10" height="10" />
  <rect x="382" y="109" width="10" height="10" />
  <rect x="382" y="133" width="10" height="10" />
  <rect x="394" y="97" width="10" height="10" />
  <rect x="394" y="109" width="10" height="10" />

  <!-- 4 -->
  <rect x="416" y="97" width="10" height="10" />
  <rect x="416" y="109" width="10" height="10" />
  <rect x="428" y="85" width="10" height="10" />
  <rect x="428" y="97" width="10" height="10" />
  <rect x="428" y="109" width="10" height="10" />
  <rect x="440" y="73" width="10" height="10" />
  <rect x="440" y="85" width="10" height="10" />
  <rect x="440" y="109" width="10" height="10" />
  <rect x="452" y="61" width="10" height="10" />
  <rect x="452" y="73" width="10" height="10" />
  <rect x="452" y="109" width="10" height="10" />
  <rect x="464" y="61" width="10" height="10" />
  <rect x="464" y="73" width="10" height="10" />
  <rect x="464" y="85" width="10" height="10" />
  <rect x="464" y="97" width="10" height="10" />
  <rect x="464" y="109" width="10" height="10" />
  <rect x="464" y="121" width="10" height="10" />
  <rect x="464" y="133" width="10" height="10" />
  <rect x="476" y="61" width="10" height="10" />
  <rect x="476" y="73" width="10" height="10" />
  <rect x="476" y="85" width="10" height="10" />
  <rect x="476" y="97" width="10" height="10" />
  <rect x="476" y="109" width="10" height="10" />
  <rect x="476" y="121" width="10" height="10" />
  <rect x="476" y="133" width="10" height="10" />
  <rect x="488" y="109" width="10" height="10" />

  <!-- 2 -->
  <rect x="510" y="73" width="10" height="10" />
  <rect x="510" y="109" width="10" height="10" />
  <rect x="510" y="121" width="10" height="10" />
  <rect x="510" y="133" width="10" height="10" />
  <rect x="522" y="61" width="10" height="10" />
  <rect x="522" y="73" width="10" height="10" />
  <rect x="522" y="97" width="10" height="10" />
  <rect x="522" y="109" width="10" height="10" />
  <rect x="522" y="121" width="10" height="10" />
  <rect x="522" y="133" width="10" height="10" />
  <rect x="534" y="61" width="10" height="10" />
  <rect x="534" y="97" width="10" height="10" />
  <rect x="534" y="133" width="10" height="10" />
  <rect x="546" y="61" width="10" height="10" />
  <rect x="546" y="97" width="10" height="10" />
  <rect x="546" y="133" width="10" height="10" />
  <rect x="558" y="61" width="10" height="10" />
  <rect x="558" y="97" width="10" height="10" />
  <rect x="558" y="133" width="10" height="10" />
  <rect x="570" y="61" width="10" height="10" />
  <rect x="570" y="73" width="10" height="10" />
  <rect x="570" y="85" width="10" height="10" />
  <rect x="570" y="97" width="10" height="10" />
  <rect x="570" y="133" width="10" height="10" />
  <rect x="582" y="73" width="10" height="10" />
  <rect x="582" y="85" width="10" height="10" />
  <rect x="582" y="133" width="10" height="10" />

</svg>
